<?xml version="1.0" encoding="utf-8"?>
<!-- Generator: Adobe Illustrator 24.1.0, SVG Export Plug-In . SVG Version: 6.00 Build 0)  -->
<svg version="1.1" id="Layer_1" xmlns="http://www.w3.org/2000/svg" xmlns:xlink="http://www.w3.org/1999/xlink" x="0px" y="0px"
	 viewBox="0 0 425 120" style="enable-background:new 0 0 425 120;" xml:space="preserve">
<style type="text/css">
	.st0{fill:#BBCBCB;}
	.st1{fill:#23CE6B;}
	.st2{fill:#E8EEF2;}
</style>
<g>
	<g>
		<path class="st0" d="M68.7,13.3c0,0,8,3.1,30.3,18c13.1,8.7,33.5,22.4,48.6,27c8.7-5.2,36.8-22.6,36.2-32.1
			c-0.3-5.4-4.3-8.6-8.9-10.5c-4.5-1-10.2-1.5-17.3-1.8c-22.8-0.9-27.4-2.1-50-8.4c-14-3.9-25.4-5.1-32-5.4
			C71.9-0.1,68.3,0.2,64.7,1L32.4,8.7C48.9,5.3,68.7,13.3,68.7,13.3z"/>
		<path class="st1" d="M200.2,71.6l-9.5-43.1c1.2,11.2-32.7,31.2-32.7,31.2s-24.5,17.2-48.6,23c-28.2,6.8-44,5.8-64.9-0.3
			C26.3,77.1,6,65,1.2,54.6c-0.1-0.1-0.1-0.3-0.2-0.5c2.5,9.9,9.1,19,15.6,26.2c22.2,24.4,49.9,34,66.4,36.9
			c67.5,11.9,101.5-17.3,113.6-31.2C200,81.9,201.3,76.6,200.2,71.6z"/>
		<path class="st2" d="M40.2,74.4c-1.1-4-1.7-9.8-0.7-18c2.1-17.5,12.9-28.6,24.3-38.9C44.2,7.1,33,8.6,30.7,9.1l-0.4,0.1h-0.1l0,0
			l0,0C4.8,22.2-1.7,36.9,0.3,50.5C4.2,63,31,71.9,40.2,74.4z"/>
	</g>
	<g>
		<path class="st2" d="M326.6,15.4c4.3,0,7.7-3.5,7.7-7.8c0-1.9-0.7-3.8-2.1-5.2c-1.4-1.5-3.4-2.4-5.6-2.4c-4.3,0-7.8,3.3-7.8,7.4
			l0,0c0,2.1,0.8,4,2.2,5.6C322.6,14.4,324.6,15.4,326.6,15.4z"/>
		<g>
			<path class="st2" d="M251.7,51.9v18.8h14.5V16.5h-14.5v2c-2.1-1.4-5.1-2.6-8.7-2.6c-9.8,0-17,8-17.1,19.3c0,5.2,1.8,10,5.1,13.6
				c3.3,3.5,7.7,5.6,12.4,5.6C246.5,54.3,249.4,53.5,251.7,51.9z M240.2,35.1c0-3.7,2.5-6.4,5.8-6.4c1.5,0,3,0.6,4,1.7
				c1.2,1.2,1.8,2.8,1.8,4.7l0,0c0,1.8-0.6,3.4-1.8,4.6c-2.1,2.1-5.9,2.1-7.9,0C240.7,38.5,240.2,37,240.2,35.1z"/>
			<path class="st2" d="M289.5,54.1c3.2,0,5.9-0.7,8.1-2.2v1.8h14.4V16.4h-14.5l-0.1,18c0,2.5-0.6,4.5-1.8,5.7
				c-0.8,0.8-1.9,1.2-3.2,1.2s-2.4-0.4-3.2-1.2c-1.2-1.2-1.8-3.1-1.7-5.6l0.1-18.1h-14.5v19.3c0,5.6,1.8,10.3,5.1,13.7
				C281.4,52.4,285.3,54.1,289.5,54.1z"/>
			<polygon class="st2" points="319.3,53.6 333.8,53.6 333.8,16.5 319.4,16.5 			"/>
			<polygon class="st2" points="361.1,40.9 375.2,28.7 375.2,16.5 340.4,16.5 340.4,29.4 353.5,29.4 339.6,41.1 339.6,53.6 
				375.9,53.6 375.9,40.9 			"/>
		</g>
		<g>
			<path class="st2" d="M319.3,65.8v1.9c-2.5-1.7-5.3-2.5-8.6-2.5c-5,0-9.3,2-12.5,5.6c-3.1,3.5-4.7,8.3-4.7,13.6
				c0,10.7,7.6,19.3,17.2,19.3c3.3,0,6.1-0.7,8.5-2.2v1.7h14.5V65.8H319.3z M319.3,84.3L319.3,84.3c0,1.9-0.6,3.5-1.8,4.7
				c-2,2-5.8,2.1-8,0c-1.2-1.2-1.8-2.8-1.8-4.6c0.1-3.7,2.5-6.4,5.8-6.4c1.5,0,3.1,0.6,4.1,1.7C318.7,80.9,319.3,82.6,319.3,84.3z"
				/>
			<path class="st2" d="M362.8,65.2c-3,0-5.8,0.8-8.3,2.5v-1.9H340V120h14.4v-18.9c2.5,1.7,5.4,2.5,8.6,2.5c4.7,0,8.9-1.7,11.9-4.7
				c3.4-3.4,5.3-8.6,5.3-14.4C380.2,73.7,372.6,65.2,362.8,65.2z M365.7,84.3L365.7,84.3c0,1.9-0.6,3.7-1.7,4.7
				c-0.9,0.9-2.2,1.5-3.8,1.5c-1.5,0-3-0.6-4-1.7c-1.2-1.2-1.8-2.7-1.8-4.6s0.6-3.5,1.8-4.7c1.1-1.1,2.5-1.7,4-1.7
				c1.4,0,2.7,0.5,3.8,1.5C365.1,80.8,365.7,82.4,365.7,84.3z"/>
			<path class="st2" d="M407.4,65.2c-3,0-5.8,0.8-8.3,2.5v-1.9h-14.5V120h14.5v-18.9c2.5,1.7,5.4,2.5,8.6,2.5
				c4.7,0,8.9-1.7,11.9-4.7c3.4-3.4,5.3-8.6,5.3-14.4C424.9,73.7,417.2,65.2,407.4,65.2z M410.4,84.3L410.4,84.3
				c0,1.9-0.6,3.7-1.7,4.7c-0.9,0.9-2.2,1.5-3.8,1.5c-1.5,0-3-0.6-4-1.7c-1.2-1.2-1.8-2.7-1.8-4.6s0.6-3.5,1.8-4.7
				c1.1-1.1,2.5-1.7,4-1.7c1.4,0,2.7,0.5,3.8,1.5C409.8,80.8,410.4,82.4,410.4,84.3z"/>
		</g>
	</g>
</g>
</svg>
