<?xml version="1.0" encoding="UTF-8"?>
<svg width="426px" height="120px" viewBox="0 0 426 120" version="1.1" xmlns="http://www.w3.org/2000/svg" xmlns:xlink="http://www.w3.org/1999/xlink">
    <title>nav-logo copy 2</title>
    <g id="Atoms" stroke="none" stroke-width="1" fill="none" fill-rule="evenodd">
        <g id="Artboard" transform="translate(-40.000000, -416.000000)" fill-rule="nonzero">
            <g id="nav-logo-copy-2" transform="translate(40.000000, 416.000000)">
                <g id="Group">
                    <path d="M69.7,13.3 C69.7,13.3 77.7,16.4 100,31.3 C113.1,40 133.5,53.7 148.6,58.3 C157.3,53.1 185.4,35.7 184.8,26.2 C184.5,20.8 180.5,17.6 175.9,15.7 C171.4,14.7 165.7,14.2 158.6,13.9 C135.8,13 131.2,11.8 108.6,5.5 C94.6,1.6 83.2,0.4 76.6,0.1 C72.9,-0.1 69.3,0.2 65.7,1 L33.4,8.7 C49.9,5.3 69.7,13.3 69.7,13.3 Z" id="Path" fill="#00B2A0"></path>
                    <path d="M201.2,71.6 L191.7,28.5 C192.9,39.7 159,59.7 159,59.7 C159,59.7 134.5,76.9 110.4,82.7 C82.2,89.5 66.4,88.5 45.5,82.4 C27.3,77.1 7,65 2.2,54.6 C2.1,54.5 2.1,54.3 2,54.1 C4.5,64 11.1,73.1 17.6,80.3 C39.8,104.7 67.5,114.3 84,117.2 C151.5,129.1 185.5,99.9 197.6,86 C201,81.9 202.3,76.6 201.2,71.6 Z" id="Path" fill="#00CAA3"></path>
                    <path d="M41.2,74.4 C40.1,70.4 39.5,64.6 40.5,56.4 C42.6,38.9 53.4,27.8 64.8,17.5 C45.2,7.1 34,8.6 31.7,9.1 L31.3,9.2 L31.2,9.2 L31.2,9.2 L31.2,9.2 C5.8,22.2 -0.7,36.9 1.3,50.5 C5.2,63 32,71.9 41.2,74.4 Z" id="Path" fill="#006B97"></path>
                </g>
                <g id="Group" transform="translate(226.000000, 0.000000)" fill="#161718">
                    <path d="M101.6,15.4 C105.9,15.4 109.3,11.9 109.3,7.6 C109.3,5.7 108.6,3.8 107.2,2.4 C105.8,0.9 103.8,4.4408921e-16 101.6,4.4408921e-16 C97.3,4.4408921e-16 93.8,3.3 93.8,7.4 L93.8,7.4 C93.8,9.5 94.6,11.4 96,13 C97.6,14.4 99.6,15.4 101.6,15.4 Z" id="Path"></path>
                    <path d="M26.7,51.9 L26.7,70.7 L41.2,70.7 L41.2,16.5 L26.7,16.5 L26.7,18.5 C24.6,17.1 21.6,15.9 18,15.9 C8.2,15.9 1,23.9 0.9,35.2 C0.9,40.4 2.7,45.2 6,48.8 C9.3,52.3 13.7,54.4 18.4,54.4 C21.5,54.3 24.4,53.5 26.7,51.9 Z M15.2,35.1 C15.2,31.4 17.7,28.7 21,28.7 C22.5,28.7 24,29.3 25,30.4 C26.2,31.6 26.8,33.2 26.8,35.1 L26.8,35.1 C26.8,36.9 26.2,38.5 25,39.7 C22.9,41.8 19.1,41.8 17.1,39.7 C15.7,38.5 15.2,37 15.2,35.1 Z" id="Shape"></path>
                    <path d="M64.5,54.1 C67.7,54.1 70.4,53.4 72.6,51.9 L72.6,53.7 L87,53.7 L87,16.4 L72.5,16.4 L72.4,34.4 C72.4,36.9 71.8,38.9 70.6,40.1 C69.8,40.9 68.7,41.3 67.4,41.3 C66.1,41.3 65,40.9 64.2,40.1 C63,38.9 62.4,37 62.5,34.5 L62.6,16.4 L48.1,16.4 L48.1,35.7 C48.1,41.3 49.9,46 53.2,49.4 C56.4,52.4 60.3,54.1 64.5,54.1 Z" id="Path"></path>
                    <polygon id="Path" points="94.3 53.6 108.8 53.6 108.8 16.5 94.4 16.5"></polygon>
                    <polygon id="Path" points="136.1 40.9 150.2 28.7 150.2 16.5 115.4 16.5 115.4 29.4 128.5 29.4 114.6 41.1 114.6 53.6 150.9 53.6 150.9 40.9"></polygon>
                    <path d="M94.3,65.8 L94.3,67.7 C91.8,66 89,65.2 85.7,65.2 C80.7,65.2 76.4,67.2 73.2,70.8 C70.1,74.3 68.5,79.1 68.5,84.4 C68.5,95.1 76.1,103.7 85.7,103.7 C89,103.7 91.8,103 94.2,101.5 L94.2,103.2 L108.7,103.2 L108.7,65.8 L94.3,65.8 Z M94.3,84.3 L94.3,84.3 C94.3,86.2 93.7,87.8 92.5,89 C90.5,91 86.7,91.1 84.5,89 C83.3,87.8 82.7,86.2 82.7,84.4 C82.8,80.7 85.2,78 88.5,78 C90,78 91.6,78.6 92.6,79.7 C93.7,80.9 94.3,82.6 94.3,84.3 Z" id="Shape"></path>
                    <path d="M137.8,65.2 C134.8,65.2 132,66 129.5,67.7 L129.5,65.8 L115,65.8 L115,120 L129.4,120 L129.4,101.1 C131.9,102.8 134.8,103.6 138,103.6 C142.7,103.6 146.9,101.9 149.9,98.9 C153.3,95.5 155.2,90.3 155.2,84.5 C155.2,73.7 147.6,65.2 137.8,65.2 Z M140.7,84.3 L140.7,84.3 C140.7,86.2 140.1,88 139,89 C138.1,89.9 136.8,90.5 135.2,90.5 C133.7,90.5 132.2,89.9 131.2,88.8 C130,87.6 129.4,86.1 129.4,84.2 C129.4,82.3 130,80.7 131.2,79.5 C132.3,78.4 133.7,77.8 135.2,77.8 C136.6,77.8 137.9,78.3 139,79.3 C140.1,80.8 140.7,82.4 140.7,84.3 Z" id="Shape"></path>
                    <path d="M182.4,65.2 C179.4,65.2 176.6,66 174.1,67.7 L174.1,65.8 L159.6,65.8 L159.6,120 L174.1,120 L174.1,101.1 C176.6,102.8 179.5,103.6 182.7,103.6 C187.4,103.6 191.6,101.9 194.6,98.9 C198,95.5 199.9,90.3 199.9,84.5 C199.9,73.7 192.2,65.2 182.4,65.2 Z M185.4,84.3 L185.4,84.3 C185.4,86.2 184.8,88 183.7,89 C182.8,89.9 181.5,90.5 179.9,90.5 C178.4,90.5 176.9,89.9 175.9,88.8 C174.7,87.6 174.1,86.1 174.1,84.2 C174.1,82.3 174.7,80.7 175.9,79.5 C177,78.4 178.4,77.8 179.9,77.8 C181.3,77.8 182.6,78.3 183.7,79.3 C184.8,80.8 185.4,82.4 185.4,84.3 Z" id="Shape"></path>
                </g>
            </g>
        </g>
    </g>
</svg>